<?xml version="1.0" encoding="UTF-8"?>
<svg version="1.1" xmlns="http://www.w3.org/2000/svg" width="300" height="300">
<path d="M0 0 C1.90992124 -0.00571079 3.81983907 -0.01267778 5.72975159 -0.02079773 C10.89108229 -0.03866765 16.05224239 -0.03757216 21.21359468 -0.03185534 C25.53482514 -0.02875399 29.85602328 -0.03486658 34.17724913 -0.04089409 C44.37893589 -0.05491801 54.58053887 -0.05339631 64.78222656 -0.04199219 C75.27789793 -0.03051809 85.77331356 -0.04457971 96.26895124 -0.07138866 C105.30627793 -0.09360137 114.34352468 -0.10017036 123.38087672 -0.09431225 C128.7669126 -0.09095419 134.15278467 -0.09328069 139.53879738 -0.11056328 C144.60740782 -0.12611893 149.67564187 -0.12198187 154.7442379 -0.10325813 C156.59441942 -0.09959574 158.44462938 -0.10261133 160.29478455 -0.11314392 C179.43084932 -0.21368522 195.40667586 3.51493147 209.70385742 17.13452148 C210.83114258 18.25793945 210.83114258 18.25793945 211.98120117 19.40405273 C212.61928711 20.01893555 213.25737305 20.63381836 213.91479492 21.26733398 C227.39655377 35.28956424 229.43524955 52.96775552 229.38525391 71.42285156 C229.3909647 73.3327728 229.39793169 75.24269063 229.40605164 77.15260315 C229.42392155 82.31393385 229.42282607 87.47509395 229.41710925 92.63644624 C229.4140079 96.9576767 229.42012049 101.27887485 229.426148 105.6001007 C229.44017192 115.80178745 229.43865022 126.00339043 229.42724609 136.20507812 C229.41577199 146.7007495 229.42983361 157.19616512 229.45664257 167.6918028 C229.47885528 176.7291295 229.48542427 185.76637625 229.47956616 194.80372828 C229.47620809 200.18976416 229.47853459 205.57563623 229.49581718 210.96164894 C229.51137283 216.03025938 229.50723578 221.09849343 229.48851204 226.16708946 C229.48484965 228.01727099 229.48786524 229.86748094 229.49839783 231.71763611 C229.59893913 250.85370088 225.87032244 266.82952742 212.25073242 281.12670898 C211.50178711 281.87823242 210.7528418 282.62975586 209.98120117 283.40405273 C209.36631836 284.04213867 208.75143555 284.68022461 208.11791992 285.33764648 C194.09568967 298.81940533 176.41749839 300.85810111 157.96240234 300.80810547 C156.0524811 300.81381626 154.14256327 300.82078325 152.23265076 300.8289032 C147.07132006 300.84677312 141.91015995 300.84567763 136.74880767 300.83996081 C132.42757721 300.83685946 128.10637906 300.84297205 123.78515321 300.84899956 C113.58346646 300.86302348 103.38186348 300.86150178 93.18017578 300.85009766 C82.68450441 300.83862356 72.18908878 300.85268518 61.69345111 300.87949413 C52.65612441 300.90170684 43.61887766 300.90827583 34.58152562 300.90241772 C29.19548974 300.89905966 23.80961768 300.90138616 18.42360497 300.91866875 C13.35499453 300.93422439 8.28676048 300.93008734 3.21816444 300.9113636 C1.36798292 300.90770121 -0.48222703 300.9107168 -2.3323822 300.92124939 C-21.46844698 301.02179069 -37.44427352 297.293174 -51.74145508 283.67358398 C-52.49297852 282.92463867 -53.24450195 282.17569336 -54.01879883 281.40405273 C-54.97592773 280.48172852 -54.97592773 280.48172852 -55.95239258 279.54077148 C-69.43415143 265.51854123 -71.47284721 247.84034995 -71.42285156 229.38525391 C-71.42856235 227.47533267 -71.43552935 225.56541484 -71.44364929 223.65550232 C-71.46151921 218.49417162 -71.46042372 213.33301152 -71.45470691 208.17165923 C-71.45160555 203.85042877 -71.45771814 199.52923062 -71.46374565 195.20800477 C-71.47776957 185.00631802 -71.47624788 174.80471504 -71.46484375 164.60302734 C-71.45336965 154.10735597 -71.46743127 143.61194034 -71.49424022 133.11630267 C-71.51645293 124.07897597 -71.52302192 115.04172922 -71.51716381 106.00437719 C-71.51380575 100.61834131 -71.51613225 95.23246924 -71.53341484 89.84645653 C-71.54897049 84.77784609 -71.54483343 79.70961204 -71.5261097 74.64101601 C-71.5224473 72.79083448 -71.5254629 70.94062453 -71.53599548 69.09046936 C-71.63653678 49.95440459 -67.9079201 33.97857805 -54.28833008 19.68139648 C-53.53938477 18.92987305 -52.79043945 18.17834961 -52.01879883 17.40405273 C-51.40391602 16.7659668 -50.7890332 16.12788086 -50.15551758 15.47045898 C-36.13328733 1.98870013 -18.45509605 -0.04999564 0 0 Z M-22.01879883 88.40405273 C-22.61963818 90.75724077 -22.61963818 90.75724077 -22.5267334 93.45214844 C-22.5380127 94.49529205 -22.54929199 95.53843567 -22.56091309 96.6131897 C-22.55281616 97.75718231 -22.54471924 98.90117493 -22.53637695 100.07983398 C-22.54338623 101.28489594 -22.55039551 102.48995789 -22.55761719 103.73153687 C-22.572221 107.03759204 -22.56877787 110.34264783 -22.55610085 113.64864731 C-22.54598066 117.10659896 -22.55536377 120.56450762 -22.56164551 124.02246094 C-22.56892483 129.82974932 -22.55932694 135.63683429 -22.5402832 141.4440918 C-22.51851366 148.16016471 -22.52556485 154.87575194 -22.54758883 161.59181309 C-22.56573491 167.35582165 -22.56830511 173.11968392 -22.55783415 178.88371181 C-22.55159475 182.32731018 -22.55077551 185.77068018 -22.5639801 189.21426392 C-22.57766953 193.05245882 -22.55870174 196.89010876 -22.53637695 200.72827148 C-22.54447388 201.8722641 -22.5525708 203.01625671 -22.56091309 204.19491577 C-22.54963379 205.23805939 -22.53835449 206.281203 -22.5267334 207.35595703 C-22.5252253 208.26371384 -22.52371719 209.17147064 -22.52216339 210.10673523 C-22.19023832 212.49200947 -22.19023832 212.49200947 -20.47574615 214.19574928 C-17.07116388 215.87009064 -13.91159606 215.81855097 -10.19970703 215.78500366 C-9.40690244 215.78968363 -8.61409784 215.79436361 -7.79726887 215.7991854 C-5.13786964 215.81116167 -2.47898323 215.80166799 0.18041992 215.79223633 C2.08582867 215.79630086 3.99123505 215.80164208 5.89663696 215.8081665 C11.07424812 215.82185995 16.25168024 215.81653306 21.42929459 215.80702925 C26.84333027 215.79944317 32.25735044 215.80647533 37.67138672 215.81118774 C46.76394406 215.81664836 55.85642835 215.80944563 64.94897461 215.79516602 C75.46681543 215.77883894 85.98448179 215.78412723 96.50231838 215.80064523 C105.52660588 215.81425136 114.5508408 215.81618403 123.57513523 215.80832922 C128.96763024 215.80364791 134.3600432 215.80304046 139.75253296 215.81293869 C144.82179318 215.82159335 149.8908281 215.81561387 154.96006393 215.79825592 C156.8224996 215.79428305 158.68495417 215.79543875 160.54738235 215.80204391 C163.08588224 215.81021796 165.623656 215.7999883 168.16210938 215.78500366 C169.27280556 215.79504191 169.27280556 215.79504191 170.40594006 215.80528295 C173.43875057 215.77045653 175.69926881 215.5427044 178.4381485 214.19574928 C180.48570516 211.81825417 180.48395333 210.47535399 180.48913574 207.35595703 C180.50041504 206.31281342 180.51169434 205.2696698 180.52331543 204.19491577 C180.51521851 203.05092316 180.50712158 201.90693054 180.4987793 200.72827148 C180.50578857 199.52320953 180.51279785 198.31814758 180.52001953 197.0765686 C180.53462334 193.77051343 180.53118021 190.46545764 180.51850319 187.15945816 C180.50838301 183.70150651 180.51776612 180.24359784 180.52404785 176.78564453 C180.53132717 170.97835615 180.52172929 165.17127118 180.50268555 159.36401367 C180.480916 152.64794076 180.48796719 145.93235353 180.50999117 139.21629238 C180.52813726 133.45228382 180.53070745 127.68842155 180.52023649 121.92439365 C180.5139971 118.48079529 180.51317785 115.03742529 180.52638245 111.59384155 C180.54007188 107.75564665 180.52110408 103.9179967 180.4987793 100.07983398 C180.50687622 98.93584137 180.51497314 97.79184875 180.52331543 96.6131897 C180.51203613 95.57004608 180.50075684 94.52690247 180.48913574 93.45214844 C180.48762764 92.54439163 180.48611954 91.63663483 180.48456573 90.70137024 C180.15264067 88.316096 180.15264067 88.316096 178.4381485 86.61235619 C175.03356622 84.93801483 171.8739984 84.9895545 168.16210938 85.02310181 C166.97290248 85.01608185 166.97290248 85.01608185 165.75967121 85.00892007 C163.10027199 84.9969438 160.44138557 85.00643748 157.78198242 85.01586914 C155.87657368 85.01180461 153.97116729 85.00646339 152.06576538 84.99993896 C146.88815422 84.98624552 141.71072211 84.99157241 136.53310776 85.00107622 C131.11907207 85.0086623 125.7050519 85.00163014 120.29101562 84.99691772 C111.19845828 84.99145711 102.10597399 84.99865983 93.01342773 85.01293945 C82.49558692 85.02926653 71.97792055 85.02397824 61.46008396 85.00746024 C52.43579647 84.99385411 43.41156155 84.99192144 34.38726711 84.99977624 C28.99477211 85.00445756 23.60235915 85.00506501 18.20986938 84.99516678 C13.14060916 84.98651212 8.07157425 84.9924916 3.00233841 85.00984955 C1.13990275 85.01382241 -0.72255182 85.01266672 -2.58498001 85.00606155 C-5.12347989 84.99788751 -7.66125366 85.00811717 -10.19970703 85.02310181 C-10.94017116 85.01640964 -11.68063528 85.00971748 -12.44353771 85.00282252 C-16.51710079 85.04960013 -19.27873048 85.22245622 -22.01879883 88.40405273 Z " fill="#000000" transform="translate(71.018798828125,-0.404052734375)"/>
<path d="M0 0 C0.75498779 0.35779541 1.50997559 0.71559082 2.2878418 1.08422852 C3.50467651 1.68255493 3.50467651 1.68255493 4.74609375 2.29296875 C5.59018799 2.70023193 6.43428223 3.10749512 7.30395508 3.52709961 C13.87847279 6.74058722 20.2766063 10.22850214 26.64550781 13.82861328 C31.20642188 16.40217291 35.79733091 18.85608743 40.49609375 21.16796875 C47.87528932 24.79904793 55.19185337 28.54831944 62.49813843 32.32339478 C63.82444007 33.0085159 65.15111773 33.69290962 66.47817993 34.3765564 C68.3562125 35.34422974 70.23297356 36.31432453 72.109375 37.28515625 C73.20677002 37.85218262 74.30416504 38.41920898 75.43481445 39.00341797 C78.18359375 40.48046875 78.18359375 40.48046875 81.18359375 42.48046875 C86.36934417 42.25015605 90.20847225 40.02288021 94.55859375 37.41796875 C99.79965653 34.37715496 105.05523893 31.46061764 110.49609375 28.79296875 C117.87939186 25.15911183 125.19239976 21.39667219 132.49609375 17.60546875 C133.65616943 17.00355713 134.81624512 16.40164551 136.01147461 15.78149414 C141.33935841 13.01272855 146.66150153 10.23391797 151.96875 7.42578125 C152.83653076 6.96671387 153.70431152 6.50764648 154.59838867 6.03466797 C156.1871238 5.19245074 157.77461963 4.34788964 159.3605957 3.50048828 C166.92646 -0.5155402 166.92646 -0.5155402 170.18359375 -1.51953125 C171.17359375 -1.18953125 172.16359375 -0.85953125 173.18359375 -0.51953125 C175.86427557 17.2399858 175.86427557 17.2399858 172.18359375 22.48046875 C170.171875 23.7265625 170.171875 23.7265625 167.49609375 24.91796875 C161.38974295 27.81540685 155.54747657 31.05844211 149.68359375 34.41796875 C139.73435076 40.09316019 129.68138291 45.55702604 119.56787109 50.93188477 C113.92852422 53.9314292 108.30560189 56.95195562 102.7265625 60.0625 C101.72439697 60.61929443 100.72223145 61.17608887 99.68969727 61.74975586 C97.82538787 62.7887833 95.9649101 63.83472868 94.10913086 64.88891602 C85.62635783 69.60486614 85.62635783 69.60486614 81.18359375 69.48046875 C78.17070475 68.39055088 75.46303584 66.87570661 72.68359375 65.29296875 C71.85537109 64.83881592 71.02714844 64.38466309 70.17382812 63.91674805 C68.4038576 62.94468526 66.6376663 61.96571454 64.875 60.98046875 C62.25921671 59.52261565 59.63107602 58.09077969 56.99609375 56.66796875 C40.58373182 47.79707952 24.25357926 38.75577887 8.01953125 29.5625 C7.27300293 29.1399292 6.52647461 28.7173584 5.75732422 28.28198242 C4.42414827 27.52561617 3.092324 26.76685976 1.76220703 26.00512695 C-0.75303092 24.57619146 -3.06139423 23.39880609 -5.81640625 22.48046875 C-7.70922947 18.21690018 -8.06351472 14.48325323 -8.00390625 9.85546875 C-7.99746094 8.74945313 -7.99101563 7.6434375 -7.984375 6.50390625 C-7.71744792 1.69921875 -7.71744792 1.69921875 -6.81640625 -0.51953125 C-3.39495691 -1.66001436 -3.08024751 -1.4743288 0 0 Z " fill="#000000" transform="translate(66.81640625,103.51953125)"/>
</svg>
