<?xml version="1.0" encoding="UTF-8"?>
<svg version="1.1" xmlns="http://www.w3.org/2000/svg" width="300" height="300">
<path d="M0 0 C1.90992124 -0.00571079 3.81983907 -0.01267778 5.72975159 -0.02079773 C10.89108229 -0.03866765 16.05224239 -0.03757216 21.21359468 -0.03185534 C25.53482514 -0.02875399 29.85602328 -0.03486658 34.17724913 -0.04089409 C44.37893589 -0.05491801 54.58053887 -0.05339631 64.78222656 -0.04199219 C75.27789793 -0.03051809 85.77331356 -0.04457971 96.26895124 -0.07138866 C105.30627793 -0.09360137 114.34352468 -0.10017036 123.38087672 -0.09431225 C128.7669126 -0.09095419 134.15278467 -0.09328069 139.53879738 -0.11056328 C144.60740782 -0.12611893 149.67564187 -0.12198187 154.7442379 -0.10325813 C156.59441942 -0.09959574 158.44462938 -0.10261133 160.29478455 -0.11314392 C179.43084932 -0.21368522 195.40667586 3.51493147 209.70385742 17.13452148 C210.83114258 18.25793945 210.83114258 18.25793945 211.98120117 19.40405273 C212.61928711 20.01893555 213.25737305 20.63381836 213.91479492 21.26733398 C227.39655377 35.28956424 229.43524955 52.96775552 229.38525391 71.42285156 C229.3909647 73.3327728 229.39793169 75.24269063 229.40605164 77.15260315 C229.42392155 82.31393385 229.42282607 87.47509395 229.41710925 92.63644624 C229.4140079 96.9576767 229.42012049 101.27887485 229.426148 105.6001007 C229.44017192 115.80178745 229.43865022 126.00339043 229.42724609 136.20507812 C229.41577199 146.7007495 229.42983361 157.19616512 229.45664257 167.6918028 C229.47885528 176.7291295 229.48542427 185.76637625 229.47956616 194.80372828 C229.47620809 200.18976416 229.47853459 205.57563623 229.49581718 210.96164894 C229.51137283 216.03025938 229.50723578 221.09849343 229.48851204 226.16708946 C229.48484965 228.01727099 229.48786524 229.86748094 229.49839783 231.71763611 C229.59893913 250.85370088 225.87032244 266.82952742 212.25073242 281.12670898 C211.50178711 281.87823242 210.7528418 282.62975586 209.98120117 283.40405273 C209.36631836 284.04213867 208.75143555 284.68022461 208.11791992 285.33764648 C196.40487512 296.59922489 180.50138001 300.85848498 164.67260742 300.90795898 C163.5434642 300.91794418 162.41432098 300.92792938 161.2509613 300.93821716 C158.88544346 300.95329759 156.51986274 300.96044612 154.15429688 300.95996094 C150.52849656 300.96658049 146.9053535 301.0213308 143.2800293 301.07788086 C140.97339799 301.08667353 138.66675376 301.09263403 136.36010742 301.09545898 C135.27782364 301.11701553 134.19553986 301.13857208 133.08045959 301.16078186 C125.79406865 301.093882 125.79406865 301.093882 122.30371094 298.13183594 C120.39212255 292.74360571 120.41715609 287.74743865 120.44213867 282.06811523 C120.43034576 280.87479584 120.41855286 279.68147644 120.40640259 278.45199585 C120.37115659 274.64421536 120.3619766 270.83698295 120.35620117 267.02905273 C120.33982333 263.22842893 120.31768806 259.42804876 120.28457642 255.62753296 C120.26505501 253.26580053 120.25559967 250.90395698 120.25765991 248.54214478 C120.20852734 240.90867875 119.64751572 234.04327252 116.04370117 227.15405273 C115.69952148 226.4953418 115.3553418 225.83663086 115.00073242 225.15795898 C113.94233225 223.25580154 113.94233225 223.25580154 112.23120117 221.09155273 C110.98120117 219.40405273 110.98120117 219.40405273 110.98120117 216.40405273 C111.59938721 216.27877197 112.21757324 216.15349121 112.85449219 216.02441406 C146.85365531 209.10306357 146.85365531 209.10306357 171.98120117 186.40405273 C183.62348838 166.7201857 188.64346432 143.41886988 183.16479492 120.92749023 C180.47335984 112.91536337 176.60755316 105.14155363 171.74682617 98.22436523 C169.9452904 95.34669083 169.49874275 94.09617233 169.66870117 90.77905273 C169.69319336 90.04428711 169.71768555 89.30952148 169.74291992 88.55249023 C169.98120117 86.40405273 169.98120117 86.40405273 170.48120117 84.62670898 C172.8940818 73.90070059 171.13579589 62.41512435 166.98120117 52.40405273 C165.83103863 51.04182967 165.83103863 51.04182967 162.73120117 51.09155273 C151.46686384 51.33121949 141.8520152 56.80418354 132.41479492 62.38061523 C125.0502614 66.72057924 119.89280258 67.42582241 111.48120117 65.46655273 C110.83151367 65.2925293 110.18182617 65.11850586 109.51245117 64.93920898 C100.81973689 63.10139748 92.01230361 63.21781518 83.17260742 63.21875 C80.88204971 63.21657725 78.59198574 63.19840748 76.30151367 63.17944336 C60.42148705 63.11838949 60.42148705 63.11838949 44.98120117 66.40405273 C38.12842891 67.25801229 33.7698392 65.80378082 28.04370117 62.15405273 C26.6531069 61.3202156 25.25987795 60.49075616 23.86401367 59.66577148 C23.19917969 59.2705127 22.5343457 58.87525391 21.84936523 58.46801758 C13.2294901 53.55878916 3.78340566 51.24868713 -6.01879883 50.40405273 C-10.01613645 64.3067427 -10.91559409 75.97972172 -8.16333008 90.23999023 C-7.9928496 93.97213047 -8.70120229 95.51921229 -11.01879883 98.40405273 C-11.67879883 98.40405273 -12.33879883 98.40405273 -13.01879883 98.40405273 C-13.29852539 99.12463867 -13.57825195 99.84522461 -13.86645508 100.58764648 C-15.3195589 104.13913074 -17.01010351 107.55877605 -18.70239258 111.00170898 C-22.28289971 120.25577934 -23.55163757 129.14510614 -23.45629883 139.02905273 C-23.44727539 140.16133301 -23.43825195 141.29361328 -23.42895508 142.46020508 C-23.00178142 163.38281495 -17.0896238 180.97671067 -2.43676758 196.14624023 C-0.03835063 198.50833145 -0.03835063 198.50833145 2.98120117 200.40405273 C2.98120117 201.06405273 2.98120117 201.72405273 2.98120117 202.40405273 C4.12588867 202.74436523 4.12588867 202.74436523 5.29370117 203.09155273 C9.30109553 204.51791344 13.07028255 206.2581887 16.90698242 208.08764648 C24.44254899 211.31443929 31.9896379 213.15112527 40.04370117 214.59155273 C41.00469727 214.76879883 41.96569336 214.94604492 42.95581055 215.12866211 C45.29661827 215.55955706 47.63832602 215.98457201 49.98120117 216.40405273 C49.19137859 219.88636852 47.90356696 222.49310873 46.10620117 225.59155273 C44.07366818 229.18091951 42.58128557 232.41685734 41.54370117 236.40405273 C40.43570584 240.0539197 40.1993428 240.27234458 36.66870117 242.40405273 C26.45192309 245.17470442 14.73909899 246.24548763 4.96166992 241.40405273 C-2.29163794 237.18798086 -7.26957062 231.5720808 -12.08129883 224.77905273 C-17.24986691 217.5509786 -22.09624163 213.19140123 -31.01879883 211.40405273 C-34.37155347 211.18895272 -37.66575933 211.21505051 -41.01879883 211.40405273 C-37.72631126 214.80966374 -34.33875197 217.77600352 -30.58129883 220.65405273 C-23.5628298 226.36479093 -19.95425815 232.39619771 -16.08129883 240.46655273 C-11.79619153 249.19218574 -6.34101392 255.92339934 2.98120117 259.40405273 C10.981536 261.65981526 18.84840963 261.64398988 27.10620117 261.52905273 C28.34885742 261.5200293 29.59151367 261.51100586 30.87182617 261.50170898 C33.90849122 261.47835002 36.9447397 261.44559557 39.98120117 261.40405273 C40.03070232 266.1729176 40.06696855 270.94163232 40.09106445 275.71069336 C40.1011114 277.33246466 40.11475132 278.95421789 40.13208008 280.57592773 C40.15638611 282.90930647 40.1676973 285.24244533 40.17651367 287.57592773 C40.18683624 288.29899109 40.19715881 289.02205444 40.20779419 289.76702881 C40.20861253 293.45293822 40.15163594 296.33553987 37.98120117 299.40405273 C35.4749996 300.65715352 33.73248622 300.55137613 30.92749023 300.58105469 C29.87168762 300.59388992 28.81588501 300.60672516 27.72808838 300.61994934 C26.57927185 300.62733627 25.43045532 300.63472321 24.24682617 300.64233398 C23.06207703 300.65040573 21.87732788 300.65847748 20.65667725 300.66679382 C18.13807647 300.6806533 15.61945675 300.69136707 13.10083008 300.69921875 C9.28844119 300.71629633 5.47695033 300.7601505 1.66479492 300.80444336 C-19.25799596 300.93881986 -35.98831132 298.68013325 -51.74145508 283.67358398 C-52.49297852 282.92463867 -53.24450195 282.17569336 -54.01879883 281.40405273 C-54.97592773 280.48172852 -54.97592773 280.48172852 -55.95239258 279.54077148 C-69.43415143 265.51854123 -71.47284721 247.84034995 -71.42285156 229.38525391 C-71.42856235 227.47533267 -71.43552935 225.56541484 -71.44364929 223.65550232 C-71.46151921 218.49417162 -71.46042372 213.33301152 -71.45470691 208.17165923 C-71.45160555 203.85042877 -71.45771814 199.52923062 -71.46374565 195.20800477 C-71.47776957 185.00631802 -71.47624788 174.80471504 -71.46484375 164.60302734 C-71.45336965 154.10735597 -71.46743127 143.61194034 -71.49424022 133.11630267 C-71.51645293 124.07897597 -71.52302192 115.04172922 -71.51716381 106.00437719 C-71.51380575 100.61834131 -71.51613225 95.23246924 -71.53341484 89.84645653 C-71.54897049 84.77784609 -71.54483343 79.70961204 -71.5261097 74.64101601 C-71.5224473 72.79083448 -71.5254629 70.94062453 -71.53599548 69.09046936 C-71.63653678 49.95440459 -67.9079201 33.97857805 -54.28833008 19.68139648 C-53.53938477 18.92987305 -52.79043945 18.17834961 -52.01879883 17.40405273 C-51.40391602 16.7659668 -50.7890332 16.12788086 -50.15551758 15.47045898 C-36.13328733 1.98870013 -18.45509605 -0.04999564 0 0 Z " fill="#000000" transform="translate(71.018798828125,-0.404052734375)"/>
</svg>
