<?xml version="1.0" encoding="UTF-8"?>
<svg version="1.1" xmlns="http://www.w3.org/2000/svg" width="300" height="300">
<path d="M0 0 C1.9312479 -0.00571059 3.86249242 -0.01267751 5.79373169 -0.02079773 C11.01284409 -0.03866863 16.23178779 -0.03757212 21.45092154 -0.03185534 C25.81946737 -0.02875452 30.18798122 -0.03486591 34.55652249 -0.04089409 C44.86843814 -0.05491796 55.18027091 -0.053396 65.4921875 -0.04199219 C76.10489333 -0.03051457 86.71734635 -0.04458565 97.33001888 -0.07138866 C106.46584274 -0.09359177 115.60158751 -0.10017261 124.73743641 -0.09431225 C130.18324347 -0.09095233 135.62888852 -0.09329336 141.0746727 -0.11056328 C146.19827072 -0.12610383 151.32149612 -0.12199833 156.4450798 -0.10325813 C158.31664461 -0.0995918 160.18823748 -0.10262311 162.05977631 -0.11314392 C181.96384127 -0.21642191 197.92001901 4.45587243 212.78173828 18.40405273 C227.30840052 33.708481 230.23992575 50.41237519 230.18579102 70.60644531 C230.19150166 72.53607069 230.19846859 74.4656927 230.20658875 76.39530945 C230.22446029 81.61035692 230.22336287 86.82523558 230.21764636 92.04030442 C230.21454525 96.40627067 230.22065732 100.77220492 230.22668511 105.13816661 C230.24070955 115.4453285 230.23918688 125.75240748 230.2277832 136.05957031 C230.21630897 146.66430384 230.23037083 157.26878426 230.25717968 167.87348443 C230.27939124 177.00422843 230.28596163 186.1348933 230.28010327 195.26566237 C230.27674494 200.70758896 230.27907349 206.14935343 230.29635429 211.5912571 C230.31190809 216.71239586 230.30777488 221.83316207 230.28904915 226.95428658 C230.28538626 228.82381879 230.28840384 230.69337914 230.29893494 232.56288528 C230.40188816 252.36548235 226.19593912 268.31407592 212.16455078 283.15405273 C196.75325909 297.7063544 179.91161513 300.8626056 159.56347656 300.80810547 C157.63222867 300.81381606 155.70098414 300.82078297 153.76974487 300.8289032 C148.55063248 300.8467741 143.33168877 300.84567759 138.11255503 300.83996081 C133.74400919 300.83685999 129.37549534 300.84297137 125.00695407 300.84899956 C114.69503842 300.86302343 104.38320565 300.86150147 94.07128906 300.85009766 C83.45858323 300.83862003 72.84613021 300.85269112 62.23345768 300.87949413 C53.09763382 300.90169724 43.96188906 300.90827808 34.82604015 300.90241772 C29.3802331 300.8990578 23.93458804 300.90139883 18.48880386 300.91866875 C13.36520584 300.93420929 8.24198044 300.9301038 3.11839676 300.9113636 C1.24683195 300.90769726 -0.62476091 300.91072858 -2.49629974 300.92124939 C-22.4003647 301.02452738 -38.35654245 296.35223304 -53.21826172 282.40405273 C-67.74492396 267.09962447 -70.67644919 250.39573028 -70.62231445 230.20166016 C-70.62802509 228.27203477 -70.63499203 226.34241277 -70.64311218 224.41279602 C-70.66098373 219.19774855 -70.65988631 213.98286989 -70.6541698 208.76780105 C-70.65106869 204.4018348 -70.65718076 200.03590054 -70.66320854 195.66993886 C-70.67723299 185.36277697 -70.67571032 175.05569799 -70.66430664 164.74853516 C-70.65283241 154.14380163 -70.66689426 143.53932121 -70.69370311 132.93462104 C-70.71591468 123.80387704 -70.72248507 114.67321217 -70.7166267 105.5424431 C-70.71326838 100.1005165 -70.71559692 94.65875204 -70.73287773 89.21684837 C-70.74843153 84.0957096 -70.74429832 78.9749434 -70.72557259 73.85381889 C-70.7219097 71.98428667 -70.72492727 70.11472633 -70.73545837 68.24522018 C-70.8384116 48.44262311 -66.63246256 32.49402955 -52.60107422 17.65405273 C-37.18978252 3.10175107 -20.34813857 -0.05450013 0 0 Z M-6.09326172 49.34155273 C-10.01535902 54.99398708 -11.26092247 60.62675788 -10.21826172 67.40405273 C-8.27056466 73.24714391 -5.58430907 78.23329881 -0.23388672 81.50170898 C6.70271098 84.60704632 12.68285108 85.00697804 19.78173828 82.40405273 C25.34091034 79.30374524 29.35488677 75.33635642 31.78173828 69.40405273 C32.54017617 62.73685459 32.68309106 56.02905636 29.19189453 50.12280273 C25.29470734 45.37276849 20.33737019 41.77278493 14.14501953 41.13061523 C5.17811783 40.83210122 -0.05098255 42.70380258 -6.09326172 49.34155273 Z M-7.21826172 101.40405273 C-7.21826172 146.28405273 -7.21826172 191.16405273 -7.21826172 237.40405273 C4.99173828 237.40405273 17.20173828 237.40405273 29.78173828 237.40405273 C29.45173828 192.52405273 29.12173828 147.64405273 28.78173828 101.40405273 C16.90173828 101.40405273 5.02173828 101.40405273 -7.21826172 101.40405273 Z M55.78173828 101.40405273 C55.45173828 146.28405273 55.12173828 191.16405273 54.78173828 237.40405273 C66.99173828 237.40405273 79.20173828 237.40405273 91.78173828 237.40405273 C91.80751953 231.97323242 91.83330078 226.54241211 91.85986328 220.94702148 C91.88505651 217.48799119 91.91140838 214.0290462 91.94189453 210.57006836 C91.99007894 205.09065529 92.03417986 199.61143991 92.05273438 194.13183594 C92.06797877 189.70954519 92.10256049 185.28777479 92.1500473 180.86571693 C92.16478138 179.18624734 92.17277467 177.50670343 92.17362213 175.82716942 C92.18538778 164.19189622 92.57616376 152.73591257 101.09033203 143.83764648 C106.48151455 139.26821465 112.7172685 137.1121325 119.78173828 137.40405273 C126.2280217 138.50606488 131.29386606 140.49870403 135.78173828 145.40405273 C140.13620942 152.69305878 141.9190194 158.56585056 141.98706055 167.01831055 C141.99696014 167.77967316 142.00685974 168.54103577 142.01705933 169.32546997 C142.04858604 171.83600785 142.07339675 174.34656464 142.09814453 176.85717773 C142.11872169 178.60024501 142.13971836 180.34330737 142.16111755 182.08636475 C142.21625957 186.66971866 142.26570351 191.25311701 142.31396484 195.83654785 C142.37307931 201.33824516 142.43926393 206.8398614 142.50426483 212.3414917 C142.60217532 220.69562912 142.69109909 229.049819 142.78173828 237.40405273 C154.99173828 237.40405273 167.20173828 237.40405273 179.78173828 237.40405273 C179.71864888 225.09430046 179.64309321 212.78479384 179.54602337 200.47526169 C179.50143175 194.75850606 179.46215115 189.04181985 179.43530273 183.32495117 C179.40915769 177.80050616 179.3686768 172.27632994 179.31855202 166.75205231 C179.30195877 164.65194307 179.29039781 162.55178743 179.28412437 160.45162201 C179.22425314 142.23915444 177.79496538 126.17167323 164.75439453 112.18530273 C154.14574197 102.60600458 142.20502446 100.64298985 128.41845703 101.05639648 C115.85633152 101.76688362 104.8339727 107.89757776 96.05908203 116.69311523 C94.64408644 118.58843042 94.19056685 120.09240477 93.78173828 122.40405273 C93.12173828 122.40405273 92.46173828 122.40405273 91.78173828 122.40405273 C91.78173828 115.47405273 91.78173828 108.54405273 91.78173828 101.40405273 C79.90173828 101.40405273 68.02173828 101.40405273 55.78173828 101.40405273 Z " fill="#000000" transform="translate(70.21826171875,-0.404052734375)"/>
</svg>
